<svg width="127" height="36" viewBox="0 0 127 36" fill="none" xmlns="http://www.w3.org/2000/svg">
<path d="M25.5775 3H5.1155C2.29029 3 0 5.27302 0 8.07692V28.3846C0 31.1885 2.29029 33.4615 5.1155 33.4615H25.5775C28.4027 33.4615 30.693 31.1885 30.693 28.3846V8.07692C30.693 5.27302 28.4027 3 25.5775 3Z" fill="#2AA8FF"/>
<path fill-rule="evenodd" clip-rule="evenodd" d="M7.8243 13.3613C10.5494 13.3246 13.0323 12.2927 14.9208 10.6152C16.8093 12.2927 19.2921 13.3246 22.0173 13.3613C22.1162 13.9464 22.1677 14.5474 22.1677 15.1603C22.1677 19.8578 19.1429 23.8539 14.9208 25.3349C10.6987 23.8539 7.67383 19.8578 7.67383 15.1603C7.67383 14.5474 7.72534 13.9464 7.8243 13.3613ZM18.2413 16.6577C18.5742 16.3273 18.5742 15.7915 18.2413 15.4611C17.9083 15.1307 17.3685 15.1307 17.0355 15.4611L14.0149 18.4589L12.806 17.2592C12.4731 16.9287 11.9332 16.9287 11.6003 17.2592C11.2674 17.5896 11.2674 18.1254 11.6003 18.4558L13.4121 20.2539C13.745 20.5843 14.2848 20.5843 14.6178 20.2539L18.2413 16.6577Z" fill="white"/>
<path d="M60.3375 9.152V26H56.2335V15.896L52.4655 26H49.1535L45.3615 15.872V26H41.2575V9.152H46.1055L50.8335 20.816L55.5135 9.152H60.3375ZM76.3928 19.088C76.3928 19.472 76.3688 19.872 76.3208 20.288H67.0328C67.0968 21.12 67.3608 21.76 67.8248 22.208C68.3048 22.64 68.8888 22.856 69.5768 22.856C70.6008 22.856 71.3128 22.424 71.7128 21.56H76.0808C75.8568 22.44 75.4488 23.232 74.8568 23.936C74.2808 24.64 73.5528 25.192 72.6728 25.592C71.7928 25.992 70.8088 26.192 69.7208 26.192C68.4088 26.192 67.2408 25.912 66.2168 25.352C65.1928 24.792 64.3928 23.992 63.8168 22.952C63.2408 21.912 62.9528 20.696 62.9528 19.304C62.9528 17.912 63.2328 16.696 63.7928 15.656C64.3688 14.616 65.1688 13.816 66.1928 13.256C67.2168 12.696 68.3928 12.416 69.7208 12.416C71.0168 12.416 72.1688 12.688 73.1768 13.232C74.1848 13.776 74.9688 14.552 75.5288 15.56C76.1048 16.568 76.3928 17.744 76.3928 19.088ZM72.1928 18.008C72.1928 17.304 71.9528 16.744 71.4728 16.328C70.9928 15.912 70.3928 15.704 69.6728 15.704C68.9848 15.704 68.4008 15.904 67.9208 16.304C67.4568 16.704 67.1688 17.272 67.0568 18.008H72.1928ZM78.2218 19.28C78.2218 17.904 78.4778 16.696 78.9898 15.656C79.5178 14.616 80.2298 13.816 81.1258 13.256C82.0218 12.696 83.0218 12.416 84.1258 12.416C85.0058 12.416 85.8058 12.6 86.5258 12.968C87.2618 13.336 87.8378 13.832 88.2538 14.456V8.24H92.3578V26H88.2538V24.08C87.8698 24.72 87.3178 25.232 86.5978 25.616C85.8938 26 85.0698 26.192 84.1258 26.192C83.0218 26.192 82.0218 25.912 81.1258 25.352C80.2298 24.776 79.5178 23.968 78.9898 22.928C78.4778 21.872 78.2218 20.656 78.2218 19.28ZM88.2538 19.304C88.2538 18.28 87.9658 17.472 87.3898 16.88C86.8298 16.288 86.1418 15.992 85.3258 15.992C84.5098 15.992 83.8138 16.288 83.2378 16.88C82.6778 17.456 82.3978 18.256 82.3978 19.28C82.3978 20.304 82.6778 21.12 83.2378 21.728C83.8138 22.32 84.5098 22.616 85.3258 22.616C86.1418 22.616 86.8298 22.32 87.3898 21.728C87.9658 21.136 88.2538 20.328 88.2538 19.304ZM97.8709 11.216C97.1509 11.216 96.5589 11.008 96.0949 10.592C95.6469 10.16 95.4229 9.632 95.4229 9.008C95.4229 8.368 95.6469 7.84 96.0949 7.424C96.5589 6.992 97.1509 6.776 97.8709 6.776C98.5749 6.776 99.1509 6.992 99.5989 7.424C100.063 7.84 100.295 8.368 100.295 9.008C100.295 9.632 100.063 10.16 99.5989 10.592C99.1509 11.008 98.5749 11.216 97.8709 11.216ZM99.9109 12.608V26H95.8069V12.608H99.9109ZM110.085 16.016H107.877V26H103.773V16.016H102.285V12.608H103.773V12.224C103.773 10.576 104.245 9.328 105.189 8.48C106.133 7.616 107.517 7.184 109.341 7.184C109.645 7.184 109.869 7.192 110.013 7.208V10.688C109.229 10.64 108.677 10.752 108.357 11.024C108.037 11.296 107.877 11.784 107.877 12.488V12.608H110.085V16.016ZM126.173 12.608L117.773 32.36H113.357L116.429 25.544L110.981 12.608H115.565L118.661 20.984L121.733 12.608H126.173Z" fill="#2AA8FF"/>
</svg>
